/* XPM */
static char *result[] = {
/* columns rows colors chars-per-pixel */
"16 16 10 1 ",
"  c #6A0000",
". c #AD0000",
"X c red",
"o c #FC5556",
"O c #FF7E80",
"+ c #909090",
"@ c #B9B9B9",
"# c #CBCBCB",
"$ c #D9D9DD",
"% c None",
/* pixels */
"%%%%%%%%%%%%%%%%",
"%%%%%%%%%%%%%%%%",
"%%%%%%%%%%%%%%%%",
"%%%%OooooXX.%%%%",
"%%%%Oo$$#+#.%%%%",
"%%%%Oo$#+#+.%%%%",
"%%%%OoXXXX..%%%%",
"%%%%OXoXX...%%%%",
"%%%%OooooXX.%%%%",
"%%%%  ..... %%%%",
"%%%% +@@####%%%%",
"%%%% ...... %%%%",
"%%%%%%%%%%%%%%%%",
"%%%%%%%%%%%%%%%%",
"%%%%%%%%%%%%%%%%",
"%%%%%%%%%%%%%%%%"
};
