/* XPM */
static char *result[] = {
/* columns rows colors chars-per-pixel */
"16 16 9 1 ",
"  c #9D725C",
". c #AA9664",
"X c #B5A270",
"o c #B9B9B9",
"O c #D2BFB3",
"+ c #FBE1B6",
"@ c #EBEBED",
"# c white",
"$ c None",
/* pixels */
"$$$$$$$$$$$$$$$$",
"$$$$$$$$$$$$$$$$",
"$$$$$$$$$$$$$$$$",
"$$$$$$$$$$$$$$$$",
"$$$$OX  ##@$$$$$",
"$$$OX.. OX  @$$$",
"$$#X.. OX.. .@$$",
"$@#+XX.X.. .X#@$",
"$@#@+OO+XXXXO#@$",
"$o@#@@@@+OOO#@o$",
"$$o@########@o$$",
"$$$oo@@@@@@oo$$$",
"$$$$$oooooo$$$$$",
"$$$$$$$$$$$$$$$$",
"$$$$$$$$$$$$$$$$",
"$$$$$$$$$$$$$$$$"
};
